<svg id="svg" version="1.1" xmlns="http://www.w3.org/2000/svg" xmlns:xlink="http://www.w3.org/1999/xlink" width="400" height="400" viewBox="0, 0, 400,400"><g id="svgg"><path id="path0" d="M186.400 0.800 C 186.400 1.038,184.875 1.200,182.624 1.200 C 180.537 1.200,178.737 1.379,178.600 1.600 C 178.464 1.820,177.553 2.000,176.576 2.000 C 175.599 2.000,174.800 2.180,174.800 2.400 C 174.800 2.620,174.260 2.800,173.600 2.800 C 172.940 2.800,172.400 2.980,172.400 3.200 C 172.400 3.420,171.871 3.600,171.224 3.600 C 170.577 3.600,169.936 3.780,169.800 4.000 C 169.664 4.220,169.113 4.400,168.576 4.400 C 168.039 4.400,167.600 4.580,167.600 4.800 C 167.600 5.020,167.150 5.200,166.600 5.200 C 166.050 5.200,165.600 5.380,165.600 5.600 C 165.600 5.820,165.150 6.000,164.600 6.000 C 164.050 6.000,163.600 6.180,163.600 6.400 C 163.600 6.620,163.240 6.800,162.800 6.800 C 162.360 6.800,162.000 6.980,162.000 7.200 C 162.000 7.420,161.745 7.600,161.433 7.600 C 161.122 7.600,160.807 7.735,160.733 7.900 C 160.660 8.065,159.610 8.730,158.400 9.379 C 157.190 10.027,155.851 10.882,155.425 11.279 C 154.998 11.675,154.485 12.000,154.285 12.000 C 154.085 12.000,153.444 12.502,152.860 13.115 C 152.277 13.729,151.170 14.671,150.400 15.209 C 148.629 16.446,146.866 18.205,145.598 20.000 C 145.054 20.770,144.103 21.930,143.486 22.579 C 142.868 23.227,142.081 24.352,141.736 25.079 C 141.391 25.805,140.949 26.400,140.754 26.400 C 140.559 26.400,140.400 26.670,140.400 27.000 C 140.400 27.330,140.220 27.600,140.000 27.600 C 139.780 27.600,139.600 27.836,139.600 28.125 C 139.600 28.413,139.240 29.036,138.800 29.508 C 138.360 29.980,138.000 30.644,138.000 30.983 C 138.000 31.322,137.820 31.600,137.600 31.600 C 137.380 31.600,137.200 31.960,137.200 32.400 C 137.200 32.840,137.020 33.200,136.800 33.200 C 136.580 33.200,136.400 33.560,136.400 34.000 C 136.400 34.440,136.220 34.800,136.000 34.800 C 135.780 34.800,135.600 35.340,135.600 36.000 C 135.600 36.660,135.420 37.200,135.200 37.200 C 134.980 37.200,134.800 37.560,134.800 38.000 C 134.800 38.440,134.620 38.800,134.400 38.800 C 134.180 38.800,134.000 39.329,134.000 39.976 C 134.000 40.623,133.820 41.264,133.600 41.400 C 133.380 41.536,133.200 42.166,133.200 42.800 C 133.200 43.434,133.020 44.064,132.800 44.200 C 132.580 44.336,132.400 45.247,132.400 46.224 C 132.400 47.201,132.220 48.000,132.000 48.000 C 131.767 48.000,131.600 49.333,131.600 51.200 C 131.600 53.067,131.433 54.400,131.200 54.400 C 130.959 54.400,130.800 56.067,130.800 58.600 C 130.800 61.133,130.959 62.800,131.200 62.800 C 131.433 62.800,131.600 64.125,131.600 65.976 C 131.600 67.723,131.780 69.264,132.000 69.400 C 132.220 69.536,132.400 70.346,132.400 71.200 C 132.400 72.054,132.580 72.864,132.800 73.000 C 133.020 73.136,133.200 73.867,133.200 74.624 C 133.200 75.381,133.380 76.000,133.600 76.000 C 133.820 76.000,134.000 76.540,134.000 77.200 C 134.000 77.860,134.180 78.400,134.400 78.400 C 134.620 78.400,134.800 78.749,134.800 79.176 C 134.800 79.603,134.980 80.064,135.200 80.200 C 135.420 80.336,135.600 80.887,135.600 81.424 C 135.600 81.961,135.780 82.400,136.000 82.400 C 136.220 82.400,136.400 82.760,136.400 83.200 C 136.400 83.640,136.580 84.000,136.800 84.000 C 137.020 84.000,137.200 84.360,137.200 84.800 C 137.200 85.240,137.380 85.600,137.600 85.600 C 137.820 85.600,138.000 85.960,138.000 86.400 C 138.000 86.840,138.180 87.200,138.400 87.200 C 138.620 87.200,138.800 87.436,138.800 87.725 C 138.800 88.013,139.160 88.636,139.600 89.108 C 140.040 89.580,140.400 90.126,140.400 90.321 C 140.400 90.516,140.760 91.002,141.200 91.400 C 141.640 91.798,142.000 92.347,142.000 92.620 C 142.000 92.892,142.540 93.693,143.200 94.400 C 143.860 95.107,144.400 95.847,144.400 96.045 C 144.400 96.547,151.555 103.600,152.064 103.600 C 152.292 103.600,152.983 104.140,153.600 104.800 C 154.217 105.460,155.009 106.000,155.360 106.000 C 155.712 106.000,156.000 106.150,156.000 106.332 C 156.000 106.515,156.495 106.920,157.100 107.232 C 157.705 107.545,158.438 108.025,158.729 108.300 C 159.019 108.575,159.514 108.800,159.829 108.800 C 160.143 108.800,160.400 108.980,160.400 109.200 C 160.400 109.420,160.760 109.600,161.200 109.600 C 161.640 109.600,162.000 109.780,162.000 110.000 C 162.000 110.220,162.360 110.400,162.800 110.400 C 163.240 110.400,163.600 110.580,163.600 110.800 C 163.600 111.020,163.960 111.200,164.400 111.200 C 164.840 111.200,165.200 111.380,165.200 111.600 C 165.200 111.820,165.560 112.000,166.000 112.000 C 166.440 112.000,166.800 112.180,166.800 112.400 C 166.800 112.620,167.340 112.800,168.000 112.800 C 168.660 112.800,169.200 112.980,169.200 113.200 C 169.200 113.420,169.740 113.600,170.400 113.600 C 171.060 113.600,171.600 113.780,171.600 114.000 C 171.600 114.220,172.140 114.400,172.800 114.400 C 173.460 114.400,174.000 114.580,174.000 114.800 C 174.000 115.020,174.799 115.200,175.776 115.200 C 176.753 115.200,177.664 115.380,177.800 115.600 C 177.936 115.820,179.207 116.000,180.624 116.000 C 182.075 116.000,183.200 116.175,183.200 116.400 C 183.200 116.648,185.400 116.800,189.000 116.800 C 192.600 116.800,194.800 116.648,194.800 116.400 C 194.800 116.171,196.000 116.000,197.600 116.000 C 199.200 116.000,200.400 115.829,200.400 115.600 C 200.400 115.380,201.199 115.200,202.176 115.200 C 203.153 115.200,204.064 115.020,204.200 114.800 C 204.336 114.580,204.977 114.400,205.624 114.400 C 206.271 114.400,206.800 114.220,206.800 114.000 C 206.800 113.780,207.250 113.600,207.800 113.600 C 208.350 113.600,208.800 113.420,208.800 113.200 C 208.800 112.980,209.340 112.800,210.000 112.800 C 210.660 112.800,211.200 112.620,211.200 112.400 C 211.200 112.180,211.560 112.000,212.000 112.000 C 212.440 112.000,212.800 111.820,212.800 111.600 C 212.800 111.380,213.160 111.200,213.600 111.200 C 214.040 111.200,214.400 111.020,214.400 110.800 C 214.400 110.580,214.760 110.400,215.200 110.400 C 215.640 110.400,216.000 110.220,216.000 110.000 C 216.000 109.780,216.360 109.600,216.800 109.600 C 217.240 109.600,217.600 109.420,217.600 109.200 C 217.600 108.980,217.947 108.800,218.371 108.800 C 218.796 108.800,219.381 108.575,219.671 108.300 C 219.962 108.025,220.695 107.545,221.300 107.232 C 221.905 106.920,222.400 106.515,222.400 106.332 C 222.400 106.150,222.636 106.000,222.925 106.000 C 223.214 106.000,223.968 105.460,224.600 104.800 C 225.232 104.140,225.898 103.600,226.080 103.600 C 226.582 103.600,234.000 96.075,234.000 95.566 C 234.000 95.321,234.540 94.617,235.200 94.000 C 235.860 93.383,236.400 92.635,236.400 92.336 C 236.400 92.037,236.760 91.568,237.200 91.293 C 237.640 91.018,238.000 90.525,238.000 90.197 C 238.000 89.868,238.159 89.600,238.352 89.600 C 238.799 89.600,241.600 83.968,241.600 83.070 C 241.600 82.702,241.780 82.400,242.000 82.400 C 242.220 82.400,242.400 82.040,242.400 81.600 C 242.400 81.160,242.580 80.800,242.800 80.800 C 243.020 80.800,243.200 80.260,243.200 79.600 C 243.200 78.940,243.380 78.400,243.600 78.400 C 243.820 78.400,244.000 77.860,244.000 77.200 C 244.000 76.540,244.180 76.000,244.400 76.000 C 244.620 76.000,244.800 75.370,244.800 74.600 C 244.800 73.830,244.980 73.200,245.200 73.200 C 245.420 73.200,245.600 72.491,245.600 71.624 C 245.600 70.757,245.780 69.936,246.000 69.800 C 246.220 69.664,246.400 68.213,246.400 66.576 C 246.400 64.859,246.569 63.600,246.800 63.600 C 247.044 63.600,247.200 61.741,247.200 58.824 C 247.200 56.071,247.031 53.942,246.800 53.800 C 246.580 53.664,246.400 52.314,246.400 50.800 C 246.400 49.286,246.220 47.936,246.000 47.800 C 245.780 47.664,245.600 46.753,245.600 45.776 C 245.600 44.799,245.420 44.000,245.200 44.000 C 244.980 44.000,244.800 43.370,244.800 42.600 C 244.800 41.830,244.620 41.200,244.400 41.200 C 244.180 41.200,244.000 40.660,244.000 40.000 C 244.000 39.340,243.820 38.800,243.600 38.800 C 243.380 38.800,243.200 38.440,243.200 38.000 C 243.200 37.560,243.020 37.200,242.800 37.200 C 242.580 37.200,242.400 36.660,242.400 36.000 C 242.400 35.340,242.220 34.800,242.000 34.800 C 241.780 34.800,241.596 34.485,241.591 34.100 C 241.586 33.715,240.993 32.320,240.273 31.000 C 238.245 27.281,237.852 26.657,237.100 25.957 C 236.715 25.599,236.400 25.124,236.400 24.901 C 236.400 24.679,235.680 23.755,234.800 22.848 C 233.920 21.941,233.200 21.028,233.200 20.819 C 233.200 20.255,227.243 14.400,226.669 14.400 C 226.398 14.400,225.912 14.021,225.588 13.558 C 224.906 12.581,219.825 9.049,218.500 8.630 C 218.005 8.474,217.600 8.178,217.600 7.973 C 217.600 7.768,217.240 7.600,216.800 7.600 C 216.360 7.600,216.000 7.420,216.000 7.200 C 216.000 6.980,215.640 6.800,215.200 6.800 C 214.760 6.800,214.400 6.620,214.400 6.400 C 214.400 6.180,214.040 6.000,213.600 6.000 C 213.160 6.000,212.800 5.820,212.800 5.600 C 212.800 5.380,212.260 5.200,211.600 5.200 C 210.940 5.200,210.400 5.020,210.400 4.800 C 210.400 4.580,209.950 4.400,209.400 4.400 C 208.850 4.400,208.400 4.220,208.400 4.000 C 208.400 3.780,207.860 3.600,207.200 3.600 C 206.540 3.600,206.000 3.420,206.000 3.200 C 206.000 2.980,205.471 2.800,204.824 2.800 C 204.177 2.800,203.536 2.620,203.400 2.400 C 203.264 2.180,202.353 2.000,201.376 2.000 C 200.399 2.000,199.600 1.820,199.600 1.600 C 199.600 1.360,198.000 1.200,195.600 1.200 C 193.200 1.200,191.600 1.040,191.600 0.800 C 191.600 0.574,190.467 0.400,189.000 0.400 C 187.533 0.400,186.400 0.574,186.400 0.800 M198.048 8.589 C 235.864 15.239,252.906 60.548,228.848 90.474 C 201.845 124.061,147.666 110.937,139.211 68.760 C 132.197 33.770,162.868 2.403,198.048 8.589 M180.869 26.178 C 175.546 27.888,173.336 31.415,172.837 39.000 L 172.600 42.600 168.200 42.809 C 158.512 43.268,156.201 46.310,156.200 58.600 C 156.200 71.058,158.589 74.224,168.400 74.767 L 172.600 75.000 172.871 79.076 C 173.535 89.088,176.779 91.590,189.104 91.596 C 201.404 91.602,204.637 89.147,205.163 79.400 L 205.400 75.000 209.800 74.775 C 219.540 74.278,222.002 71.034,221.996 58.704 C 221.990 46.394,219.289 42.830,209.949 42.809 C 205.257 42.798,205.355 42.899,205.095 37.800 C 204.795 31.920,203.219 29.080,199.036 26.876 C 196.554 25.569,184.239 25.095,180.869 26.178 M196.980 32.624 C 198.681 33.738,199.200 35.878,199.200 41.779 C 199.200 48.899,199.094 48.800,206.693 48.800 C 215.666 48.800,216.140 49.344,215.934 59.391 C 215.747 68.501,215.440 68.800,206.269 68.800 C 198.989 68.800,199.459 68.306,199.200 76.232 C 198.904 85.280,198.580 85.585,189.260 85.594 C 179.718 85.603,179.200 85.124,179.200 76.293 C 179.200 68.650,179.347 68.800,171.871 68.799 C 166.796 68.797,166.054 68.708,164.807 67.948 C 162.449 66.510,162.427 66.423,162.413 58.706 L 162.400 51.613 163.562 50.312 L 164.725 49.011 171.149 48.805 C 179.493 48.539,178.939 49.093,179.205 40.749 L 179.411 34.325 180.712 33.162 L 182.013 32.000 189.020 32.000 C 194.695 32.000,196.209 32.119,196.980 32.624 M48.800 89.200 C 48.800 89.420,48.080 89.600,47.200 89.600 C 46.320 89.600,45.600 89.780,45.600 90.000 C 45.600 90.220,45.274 90.400,44.875 90.400 C 44.476 90.400,43.217 90.850,42.077 91.400 C 40.937 91.950,39.733 92.400,39.402 92.400 C 39.071 92.400,38.800 92.580,38.800 92.800 C 38.800 93.020,38.480 93.200,38.088 93.200 C 37.697 93.200,37.117 93.560,36.800 94.000 C 36.483 94.440,36.010 94.800,35.748 94.800 C 35.122 94.800,28.400 101.412,28.400 102.028 C 28.400 102.291,28.075 102.797,27.677 103.153 C 26.749 103.984,24.000 109.425,24.000 110.432 C 24.000 110.854,23.820 111.200,23.600 111.200 C 23.380 111.200,23.200 111.740,23.200 112.400 C 23.200 113.060,23.020 113.600,22.800 113.600 C 22.580 113.600,22.400 114.320,22.400 115.200 C 22.400 116.080,22.220 116.800,22.000 116.800 C 21.749 116.800,21.600 119.400,21.600 123.800 C 21.600 128.200,21.749 130.800,22.000 130.800 C 22.220 130.800,22.400 131.160,22.400 131.600 C 22.400 132.133,22.133 132.400,21.600 132.400 C 21.160 132.400,20.800 132.580,20.800 132.800 C 20.800 133.020,20.440 133.200,20.000 133.200 C 19.560 133.200,19.200 133.380,19.200 133.600 C 19.200 133.820,18.840 134.000,18.400 134.000 C 17.960 134.000,17.600 134.180,17.600 134.400 C 17.600 134.620,17.365 134.800,17.078 134.800 C 16.368 134.800,13.926 137.148,13.231 138.500 C 12.919 139.105,12.515 139.600,12.332 139.600 C 12.150 139.600,12.000 139.960,12.000 140.400 C 12.000 140.840,11.820 141.200,11.600 141.200 C 11.380 141.200,11.200 141.639,11.200 142.176 C 11.200 142.713,11.020 143.264,10.800 143.400 C 10.577 143.538,10.400 145.396,10.400 147.600 C 10.400 149.804,10.577 151.662,10.800 151.800 C 11.020 151.936,11.200 152.577,11.200 153.224 C 11.200 153.871,11.336 154.400,11.502 154.400 C 11.669 154.400,12.060 154.985,12.372 155.700 C 12.979 157.089,16.084 160.400,16.781 160.400 C 17.011 160.400,17.200 160.580,17.200 160.800 C 17.200 161.020,17.470 161.200,17.800 161.200 C 18.130 161.200,18.400 161.380,18.400 161.600 C 18.400 161.820,18.720 162.000,19.112 162.000 C 19.503 162.000,20.083 162.360,20.400 162.800 C 20.717 163.240,21.257 163.600,21.600 163.600 C 21.943 163.600,22.483 163.960,22.800 164.400 C 23.117 164.840,23.657 165.200,24.000 165.200 C 24.343 165.200,24.883 165.560,25.200 166.000 C 25.517 166.440,26.007 166.800,26.288 166.800 C 26.570 166.800,26.800 166.950,26.800 167.132 C 26.800 167.315,27.295 167.720,27.900 168.032 C 28.505 168.345,29.349 168.915,29.775 169.300 C 30.202 169.685,30.787 170.000,31.075 170.000 C 31.364 170.000,31.600 170.158,31.600 170.351 C 31.600 170.545,32.140 170.927,32.800 171.200 C 33.460 171.473,34.000 171.855,34.000 172.049 C 34.000 172.242,34.360 172.400,34.800 172.400 C 35.240 172.400,35.600 172.550,35.600 172.732 C 35.600 172.915,36.095 173.320,36.700 173.632 C 37.305 173.945,38.038 174.425,38.329 174.700 C 38.619 174.975,39.165 175.200,39.540 175.200 C 39.916 175.200,40.483 175.560,40.800 176.000 C 41.117 176.440,41.607 176.800,41.888 176.800 C 42.170 176.800,42.400 176.950,42.400 177.132 C 42.400 177.315,42.895 177.720,43.500 178.032 C 44.105 178.345,44.949 178.915,45.375 179.300 C 45.802 179.685,46.387 180.000,46.675 180.000 C 46.964 180.000,47.200 180.150,47.200 180.332 C 47.200 180.515,47.695 180.920,48.300 181.232 C 48.905 181.545,49.749 182.115,50.175 182.500 C 50.602 182.885,51.187 183.200,51.475 183.200 C 51.764 183.200,52.000 183.380,52.000 183.600 C 52.000 183.820,52.236 184.000,52.525 184.000 C 52.813 184.000,53.398 184.315,53.825 184.700 C 54.251 185.085,55.095 185.655,55.700 185.968 C 56.305 186.280,56.800 186.685,56.800 186.868 C 56.800 187.050,57.120 187.200,57.512 187.200 C 57.903 187.200,58.483 187.560,58.800 188.000 C 59.117 188.440,59.519 188.800,59.692 188.800 C 59.866 188.800,60.905 189.430,62.000 190.200 C 63.095 190.970,64.224 191.600,64.508 191.600 C 64.791 191.600,65.283 191.960,65.600 192.400 C 65.917 192.840,66.457 193.200,66.800 193.200 C 67.143 193.200,67.683 193.560,68.000 194.000 C 68.317 194.440,68.814 194.800,69.105 194.800 C 69.396 194.800,70.020 195.160,70.492 195.600 C 70.964 196.040,71.587 196.400,71.875 196.400 C 72.164 196.400,72.400 196.580,72.400 196.800 C 72.400 197.020,72.636 197.200,72.925 197.200 C 73.213 197.200,73.836 197.560,74.308 198.000 C 74.780 198.440,75.354 198.800,75.583 198.800 C 75.812 198.800,76.000 198.950,76.000 199.132 C 76.000 199.315,76.495 199.720,77.100 200.032 C 77.705 200.345,78.549 200.915,78.975 201.300 C 79.402 201.685,79.904 202.000,80.092 202.000 C 80.280 202.000,80.820 202.360,81.292 202.800 C 81.764 203.240,82.387 203.600,82.675 203.600 C 82.964 203.600,83.200 203.758,83.200 203.951 C 83.200 204.145,83.740 204.527,84.400 204.800 C 85.060 205.073,85.600 205.411,85.600 205.549 C 85.600 205.688,86.455 206.248,87.500 206.795 C 88.545 207.341,89.638 208.016,89.929 208.294 C 90.219 208.572,90.761 208.800,91.132 208.800 C 91.504 208.800,92.032 209.160,92.307 209.600 C 92.582 210.040,93.036 210.400,93.315 210.400 C 93.595 210.400,94.083 210.760,94.400 211.200 C 94.717 211.640,95.257 212.000,95.600 212.000 C 95.943 212.000,96.483 212.360,96.800 212.800 C 97.117 213.240,97.657 213.600,98.000 213.600 C 98.343 213.600,98.883 213.960,99.200 214.400 C 99.517 214.840,100.097 215.200,100.488 215.200 C 100.880 215.200,101.200 215.380,101.200 215.600 C 101.200 215.864,86.600 216.000,58.200 216.000 C 29.800 216.000,15.200 216.136,15.200 216.400 C 15.200 216.620,14.660 216.800,14.000 216.800 C 13.340 216.800,12.800 216.980,12.800 217.200 C 12.800 217.420,12.440 217.600,12.000 217.600 C 11.560 217.600,11.200 217.780,11.200 218.000 C 11.200 218.220,10.840 218.400,10.400 218.400 C 9.960 218.400,9.600 218.580,9.600 218.800 C 9.600 219.020,9.417 219.200,9.193 219.200 C 8.544 219.200,3.600 224.321,3.600 224.993 C 3.600 225.327,3.465 225.601,3.300 225.603 C 2.894 225.607,2.000 227.586,2.000 228.480 C 2.000 228.876,1.820 229.200,1.600 229.200 C 1.380 229.200,1.200 229.920,1.200 230.800 C 1.200 231.680,1.020 232.400,0.800 232.400 C 0.256 232.400,0.256 249.064,0.800 249.400 C 1.020 249.536,1.200 250.357,1.200 251.224 C 1.200 252.091,1.380 252.800,1.600 252.800 C 1.820 252.800,2.000 253.124,2.000 253.520 C 2.000 254.414,2.894 256.393,3.300 256.397 C 3.465 256.399,3.600 256.670,3.600 257.000 C 3.600 257.330,3.780 257.600,4.000 257.600 C 4.220 257.600,4.400 257.785,4.400 258.011 C 4.400 258.434,7.802 262.000,8.206 262.000 C 8.331 262.000,8.820 262.360,9.292 262.800 C 9.764 263.240,10.387 263.600,10.675 263.600 C 10.964 263.600,11.200 263.780,11.200 264.000 C 11.200 264.220,11.549 264.400,11.976 264.400 C 12.403 264.400,12.864 264.580,13.000 264.800 C 13.136 265.020,13.867 265.200,14.624 265.200 C 15.381 265.200,16.000 265.380,16.000 265.600 C 16.000 265.858,20.467 266.000,28.600 266.000 L 41.200 266.000 41.200 300.400 C 41.200 328.513,41.104 334.800,40.675 334.800 C 40.387 334.800,39.764 335.160,39.292 335.600 C 38.820 336.040,38.156 336.400,37.817 336.400 C 37.478 336.400,37.200 336.580,37.200 336.800 C 37.200 337.020,36.952 337.200,36.648 337.200 C 36.345 337.200,35.355 337.920,34.448 338.800 C 33.541 339.680,32.651 340.400,32.471 340.400 C 31.066 340.400,24.800 349.203,24.800 351.177 C 24.800 351.630,24.620 352.000,24.400 352.000 C 24.180 352.000,24.000 352.360,24.000 352.800 C 24.000 353.240,23.820 353.600,23.600 353.600 C 23.380 353.600,23.200 354.140,23.200 354.800 C 23.200 355.460,23.020 356.000,22.800 356.000 C 22.580 356.000,22.400 356.810,22.400 357.800 C 22.400 358.790,22.220 359.600,22.000 359.600 C 21.751 359.600,21.600 361.867,21.600 365.600 C 21.600 369.333,21.751 371.600,22.000 371.600 C 22.220 371.600,22.400 372.410,22.400 373.400 C 22.400 374.390,22.580 375.200,22.800 375.200 C 23.020 375.200,23.200 375.740,23.200 376.400 C 23.200 377.060,23.380 377.600,23.600 377.600 C 23.820 377.600,24.000 378.140,24.000 378.800 C 24.000 379.460,24.180 380.000,24.400 380.000 C 24.620 380.000,24.800 380.257,24.800 380.571 C 24.800 381.295,27.479 385.826,28.800 387.337 C 30.711 389.522,32.899 391.600,33.288 391.600 C 33.503 391.600,34.183 392.140,34.800 392.800 C 35.417 393.460,36.169 394.000,36.472 394.000 C 36.775 394.000,37.283 394.360,37.600 394.800 C 37.917 395.240,38.497 395.600,38.888 395.600 C 39.280 395.600,39.600 395.780,39.600 396.000 C 39.600 396.220,39.960 396.400,40.400 396.400 C 40.840 396.400,41.200 396.580,41.200 396.800 C 41.200 397.020,41.650 397.200,42.200 397.200 C 42.750 397.200,43.200 397.380,43.200 397.600 C 43.200 397.820,43.740 398.000,44.400 398.000 C 45.060 398.000,45.600 398.180,45.600 398.400 C 45.600 398.620,46.320 398.800,47.200 398.800 C 48.080 398.800,48.800 398.980,48.800 399.200 C 48.800 399.451,51.267 399.600,55.400 399.600 C 59.533 399.600,62.000 399.451,62.000 399.200 C 62.000 398.980,62.720 398.800,63.600 398.800 C 64.480 398.800,65.200 398.620,65.200 398.400 C 65.200 398.180,65.740 398.000,66.400 398.000 C 67.060 398.000,67.600 397.820,67.600 397.600 C 67.600 397.380,68.140 397.200,68.800 397.200 C 69.460 397.200,70.000 397.020,70.000 396.800 C 70.000 396.580,70.360 396.400,70.800 396.400 C 71.240 396.400,71.600 396.220,71.600 396.000 C 71.600 395.780,71.836 395.600,72.125 395.600 C 72.413 395.600,73.036 395.240,73.508 394.800 C 73.980 394.360,74.514 394.000,74.695 394.000 C 74.876 394.000,75.283 393.640,75.600 393.200 C 75.917 392.760,76.435 392.400,76.750 392.400 C 77.399 392.400,82.381 387.622,82.392 386.988 C 82.397 386.762,82.760 386.317,83.200 386.000 C 83.640 385.683,84.000 385.143,84.000 384.800 C 84.000 384.457,84.360 383.917,84.800 383.600 C 85.240 383.283,85.600 382.703,85.600 382.312 C 85.600 381.920,85.780 381.600,86.000 381.600 C 86.220 381.600,86.400 381.240,86.400 380.800 C 86.400 380.360,86.580 380.000,86.800 380.000 C 87.020 380.000,87.200 379.460,87.200 378.800 C 87.200 378.140,87.380 377.600,87.600 377.600 C 87.820 377.600,88.000 377.060,88.000 376.400 C 88.000 375.740,88.180 375.200,88.400 375.200 C 88.620 375.200,88.800 374.581,88.800 373.824 C 88.800 373.067,88.980 372.336,89.200 372.200 C 89.432 372.057,89.600 369.863,89.600 366.976 L 89.600 362.000 200.400 362.000 L 311.200 362.000 311.200 366.576 C 311.200 369.196,311.371 371.258,311.600 371.400 C 311.820 371.536,312.000 372.447,312.000 373.424 C 312.000 374.401,312.180 375.200,312.400 375.200 C 312.620 375.200,312.800 375.740,312.800 376.400 C 312.800 377.060,312.980 377.600,313.200 377.600 C 313.420 377.600,313.605 377.915,313.611 378.300 C 313.617 378.685,314.069 379.810,314.614 380.800 C 315.160 381.790,315.715 382.915,315.850 383.300 C 315.984 383.685,316.252 384.000,316.447 384.000 C 316.641 384.000,316.800 384.288,316.800 384.640 C 316.800 384.991,317.340 385.783,318.000 386.400 C 318.660 387.017,319.200 387.637,319.200 387.779 C 319.200 388.194,322.674 391.600,323.097 391.600 C 323.308 391.600,324.046 392.140,324.737 392.800 C 325.428 393.460,326.174 394.000,326.396 394.000 C 326.618 394.000,326.800 394.180,326.800 394.400 C 326.800 394.620,327.070 394.800,327.400 394.800 C 327.730 394.800,328.000 394.980,328.000 395.200 C 328.000 395.420,328.270 395.600,328.600 395.600 C 328.930 395.600,329.200 395.780,329.200 396.000 C 329.200 396.220,329.549 396.400,329.976 396.400 C 330.403 396.400,330.864 396.580,331.000 396.800 C 331.136 397.020,331.687 397.200,332.224 397.200 C 332.761 397.200,333.200 397.380,333.200 397.600 C 333.200 397.820,333.740 398.000,334.400 398.000 C 335.060 398.000,335.600 398.180,335.600 398.400 C 335.600 398.620,336.320 398.800,337.200 398.800 C 338.080 398.800,338.800 398.980,338.800 399.200 C 338.800 399.451,341.267 399.600,345.400 399.600 C 349.533 399.600,352.000 399.451,352.000 399.200 C 352.000 398.980,352.720 398.800,353.600 398.800 C 354.480 398.800,355.200 398.620,355.200 398.400 C 355.200 398.180,355.740 398.000,356.400 398.000 C 357.060 398.000,357.600 397.820,357.600 397.600 C 357.600 397.380,358.050 397.200,358.600 397.200 C 359.150 397.200,359.600 397.020,359.600 396.800 C 359.600 396.580,359.960 396.400,360.400 396.400 C 360.840 396.400,361.200 396.220,361.200 396.000 C 361.200 395.780,361.520 395.600,361.912 395.600 C 362.303 395.600,362.883 395.240,363.200 394.800 C 363.517 394.360,364.057 394.000,364.400 394.000 C 364.743 394.000,365.283 393.640,365.600 393.200 C 365.917 392.760,366.398 392.400,366.668 392.400 C 367.557 392.400,373.971 385.633,373.993 384.671 C 373.997 384.491,374.270 384.073,374.600 383.743 C 374.930 383.413,375.200 382.796,375.200 382.371 C 375.200 381.947,375.380 381.600,375.600 381.600 C 375.820 381.600,376.000 381.240,376.000 380.800 C 376.000 380.360,376.180 380.000,376.400 380.000 C 376.620 380.000,376.800 379.460,376.800 378.800 C 376.800 378.140,376.980 377.600,377.200 377.600 C 377.420 377.600,377.600 377.060,377.600 376.400 C 377.600 375.740,377.780 375.200,378.000 375.200 C 378.220 375.200,378.400 374.581,378.400 373.824 C 378.400 373.067,378.580 372.336,378.800 372.200 C 379.340 371.866,379.340 359.200,378.800 359.200 C 378.580 359.200,378.400 358.480,378.400 357.600 C 378.400 356.720,378.220 356.000,378.000 356.000 C 377.780 356.000,377.600 355.460,377.600 354.800 C 377.600 354.140,377.420 353.600,377.200 353.600 C 376.980 353.600,376.800 353.060,376.800 352.400 C 376.800 351.740,376.620 351.200,376.400 351.200 C 376.180 351.200,376.000 350.840,376.000 350.400 C 376.000 349.960,375.820 349.600,375.600 349.600 C 375.380 349.600,375.200 349.328,375.200 348.996 C 375.200 347.559,368.688 339.600,367.512 339.600 C 367.297 339.600,366.617 339.060,366.000 338.400 C 365.383 337.740,364.674 337.200,364.423 337.200 C 364.172 337.200,363.580 336.840,363.108 336.400 C 362.636 335.960,362.013 335.600,361.725 335.600 C 361.436 335.600,361.200 335.420,361.200 335.200 C 361.200 334.980,360.840 334.800,360.400 334.800 C 359.606 334.800,359.600 334.533,359.600 300.400 L 359.600 266.000 372.200 266.000 C 380.333 266.000,384.800 265.858,384.800 265.600 C 384.800 265.380,385.419 265.200,386.176 265.200 C 386.933 265.200,387.664 265.020,387.800 264.800 C 387.936 264.580,388.397 264.400,388.824 264.400 C 389.251 264.400,389.600 264.264,389.600 264.098 C 389.600 263.931,390.173 263.542,390.873 263.232 C 392.225 262.633,397.200 257.896,397.200 257.207 C 397.200 256.983,397.380 256.800,397.600 256.800 C 397.820 256.800,398.000 256.440,398.000 256.000 C 398.000 255.560,398.180 255.200,398.400 255.200 C 398.620 255.200,398.800 254.876,398.800 254.480 C 398.800 254.084,399.025 253.535,399.300 253.260 C 400.024 252.535,400.024 228.741,399.300 228.500 C 399.025 228.408,398.800 227.988,398.800 227.567 C 398.800 227.145,398.664 226.800,398.498 226.800 C 398.331 226.800,397.942 226.227,397.632 225.527 C 397.033 224.175,392.296 219.200,391.607 219.200 C 391.383 219.200,391.200 219.020,391.200 218.800 C 391.200 218.580,390.930 218.400,390.600 218.400 C 390.270 218.400,390.000 218.220,390.000 218.000 C 390.000 217.780,389.550 217.600,389.000 217.600 C 388.450 217.600,388.000 217.420,388.000 217.200 C 388.000 216.980,387.460 216.800,386.800 216.800 C 386.140 216.800,385.600 216.620,385.600 216.400 C 385.600 216.171,384.400 216.000,382.800 216.000 C 381.200 216.000,380.000 215.829,380.000 215.600 C 380.000 215.380,380.180 215.200,380.400 215.200 C 380.620 215.200,380.800 214.912,380.800 214.560 C 380.800 214.209,381.340 213.417,382.000 212.800 C 382.660 212.183,383.200 211.474,383.200 211.223 C 383.200 210.972,383.560 210.380,384.000 209.908 C 384.440 209.436,384.800 208.813,384.800 208.525 C 384.800 208.236,384.980 208.000,385.200 208.000 C 385.420 208.000,385.600 207.640,385.600 207.200 C 385.600 206.760,385.780 206.400,386.000 206.400 C 386.220 206.400,386.400 205.950,386.400 205.400 C 386.400 204.850,386.580 204.400,386.800 204.400 C 387.020 204.400,387.200 203.860,387.200 203.200 C 387.200 202.540,387.380 202.000,387.600 202.000 C 387.820 202.000,388.000 201.316,388.000 200.480 C 388.000 199.644,388.188 198.772,388.419 198.541 C 389.275 197.685,388.484 181.946,387.556 181.373 C 387.360 181.252,387.200 180.623,387.200 179.976 C 387.200 179.329,387.020 178.800,386.800 178.800 C 386.580 178.800,386.400 178.566,386.400 178.280 C 386.400 177.544,385.459 175.607,385.100 175.603 C 384.935 175.601,384.800 175.240,384.800 174.800 C 384.800 174.360,384.620 174.000,384.400 174.000 C 384.180 174.000,384.000 173.680,384.000 173.288 C 384.000 172.897,383.640 172.317,383.200 172.000 C 382.760 171.683,382.400 171.210,382.400 170.948 C 382.400 170.376,375.815 163.600,375.258 163.600 C 375.043 163.600,374.807 163.455,374.733 163.277 C 374.230 162.056,367.993 158.893,365.383 158.536 C 364.402 158.401,363.600 158.136,363.600 157.946 C 363.600 157.756,362.957 157.600,362.171 157.600 C 360.017 157.600,359.600 156.923,359.600 153.429 C 359.600 151.763,359.444 150.400,359.253 150.400 C 359.062 150.400,358.815 149.723,358.704 148.895 C 358.398 146.621,354.965 142.000,353.580 142.000 C 353.353 142.000,352.780 141.640,352.308 141.200 C 351.836 140.760,351.033 140.400,350.525 140.400 C 350.016 140.400,349.600 140.220,349.600 140.000 C 349.600 139.780,348.880 139.600,348.000 139.600 C 347.120 139.600,346.400 139.420,346.400 139.200 C 346.400 138.935,322.867 138.800,276.600 138.800 C 230.333 138.800,206.800 138.935,206.800 139.200 C 206.800 139.420,205.900 139.600,204.800 139.600 C 203.700 139.600,202.800 139.780,202.800 140.000 C 202.800 140.220,202.440 140.400,202.000 140.400 C 201.560 140.400,201.200 140.580,201.200 140.800 C 201.200 141.020,200.922 141.200,200.583 141.200 C 199.507 141.200,194.800 145.623,194.800 146.634 C 194.800 146.945,194.620 147.200,194.400 147.200 C 194.180 147.200,194.000 147.472,194.000 147.805 C 194.000 148.138,193.841 148.723,193.647 149.105 C 192.912 150.550,192.423 151.877,191.734 154.300 L 191.023 156.800 180.311 156.800 C 173.437 156.800,169.600 156.657,169.600 156.400 C 169.600 156.180,169.330 156.000,169.000 156.000 C 168.670 156.000,168.400 155.820,168.400 155.600 C 168.400 155.380,168.130 155.200,167.800 155.200 C 167.470 155.200,167.200 155.020,167.200 154.800 C 167.200 154.580,167.012 154.400,166.783 154.400 C 166.554 154.400,165.980 154.040,165.508 153.600 C 165.036 153.160,164.413 152.800,164.125 152.800 C 163.836 152.800,163.600 152.620,163.600 152.400 C 163.600 152.180,163.364 152.000,163.075 152.000 C 162.787 152.000,162.202 151.685,161.775 151.300 C 161.349 150.915,160.505 150.345,159.900 150.032 C 159.295 149.720,158.800 149.315,158.800 149.132 C 158.800 148.950,158.530 148.800,158.200 148.800 C 157.870 148.800,157.600 148.650,157.600 148.468 C 157.600 148.285,157.105 147.880,156.500 147.568 C 155.895 147.255,155.051 146.685,154.625 146.300 C 154.198 145.915,153.696 145.600,153.508 145.600 C 153.320 145.600,152.780 145.240,152.308 144.800 C 151.836 144.360,151.213 144.000,150.925 144.000 C 150.636 144.000,150.400 143.833,150.400 143.629 C 150.400 143.425,149.680 142.940,148.800 142.552 C 147.920 142.164,147.200 141.701,147.200 141.523 C 147.200 141.345,146.880 141.200,146.488 141.200 C 146.097 141.200,145.517 140.840,145.200 140.400 C 144.883 139.960,144.343 139.600,144.000 139.600 C 143.657 139.600,143.117 139.240,142.800 138.800 C 142.483 138.360,141.993 138.000,141.712 138.000 C 141.430 138.000,141.200 137.850,141.200 137.668 C 141.200 137.485,140.705 137.081,140.100 136.770 C 139.495 136.460,138.709 135.889,138.353 135.503 C 137.997 135.116,137.452 134.800,137.141 134.800 C 136.831 134.800,136.317 134.440,136.000 134.000 C 135.683 133.560,135.143 133.200,134.800 133.200 C 134.457 133.200,133.917 132.840,133.600 132.400 C 133.283 131.960,132.743 131.600,132.400 131.600 C 132.057 131.600,131.517 131.240,131.200 130.800 C 130.883 130.360,130.343 130.000,130.000 130.000 C 129.657 130.000,129.117 129.640,128.800 129.200 C 128.483 128.760,127.969 128.400,127.659 128.400 C 127.348 128.400,126.803 128.083,126.447 127.694 C 126.091 127.306,125.113 126.631,124.273 126.194 C 123.433 125.758,122.406 125.085,121.990 124.700 C 121.574 124.315,120.996 124.000,120.705 124.000 C 120.414 124.000,119.917 123.640,119.600 123.200 C 119.283 122.760,118.743 122.400,118.400 122.400 C 118.057 122.400,117.517 122.040,117.200 121.600 C 116.883 121.160,116.343 120.800,116.000 120.800 C 115.657 120.800,115.117 120.440,114.800 120.000 C 114.483 119.560,113.943 119.200,113.600 119.200 C 113.257 119.200,112.717 118.840,112.400 118.400 C 112.083 117.960,111.569 117.600,111.259 117.600 C 110.948 117.600,110.403 117.284,110.047 116.897 C 109.691 116.511,108.905 115.940,108.300 115.630 C 107.695 115.319,107.200 114.915,107.200 114.732 C 107.200 114.550,106.930 114.400,106.600 114.400 C 106.270 114.400,106.000 114.250,106.000 114.068 C 106.000 113.885,105.505 113.480,104.900 113.168 C 104.295 112.855,103.451 112.285,103.025 111.900 C 102.598 111.515,102.095 111.200,101.908 111.200 C 101.720 111.200,101.349 111.017,101.083 110.794 C 99.961 109.852,97.527 108.400,97.071 108.400 C 96.799 108.400,96.317 108.040,96.000 107.600 C 95.683 107.160,95.143 106.800,94.800 106.800 C 94.457 106.800,93.917 106.440,93.600 106.000 C 93.283 105.560,92.743 105.200,92.400 105.200 C 92.057 105.200,91.517 104.840,91.200 104.400 C 90.883 103.960,90.393 103.600,90.112 103.600 C 89.830 103.600,89.600 103.450,89.600 103.268 C 89.600 103.085,89.105 102.680,88.500 102.368 C 87.895 102.055,87.051 101.485,86.625 101.100 C 86.198 100.715,85.653 100.400,85.413 100.400 C 85.173 100.400,84.717 100.040,84.400 99.600 C 84.083 99.160,83.503 98.800,83.112 98.800 C 82.720 98.800,82.400 98.650,82.400 98.468 C 82.400 98.285,81.905 97.880,81.300 97.568 C 80.695 97.255,79.851 96.685,79.425 96.300 C 78.998 95.915,78.413 95.600,78.125 95.600 C 77.836 95.600,77.600 95.450,77.600 95.268 C 77.600 95.085,77.105 94.680,76.500 94.368 C 75.895 94.056,75.310 93.687,75.200 93.547 C 74.814 93.056,70.642 91.200,69.925 91.200 C 69.526 91.200,69.200 91.020,69.200 90.800 C 69.200 90.580,68.660 90.400,68.000 90.400 C 67.340 90.400,66.800 90.220,66.800 90.000 C 66.800 89.780,66.080 89.600,65.200 89.600 C 64.320 89.600,63.600 89.420,63.600 89.200 C 63.600 88.948,60.867 88.800,56.200 88.800 C 51.533 88.800,48.800 88.948,48.800 89.200 M60.600 95.757 C 66.979 96.835,68.243 97.467,80.600 105.758 C 85.880 109.301,90.487 112.380,90.839 112.600 C 91.858 113.238,95.302 115.498,95.981 115.973 C 96.676 116.461,125.723 135.773,150.619 152.300 L 167.037 163.200 177.895 163.200 C 189.259 163.200,189.678 163.266,188.886 164.938 C 188.662 165.412,188.083 166.880,187.600 168.200 C 187.117 169.520,186.577 170.960,186.399 171.400 C 186.222 171.840,185.519 173.685,184.838 175.500 C 184.157 177.315,183.073 180.195,182.428 181.900 C 181.783 183.605,180.055 188.240,178.587 192.200 C 177.119 196.160,175.231 201.200,174.391 203.400 C 173.551 205.600,172.200 209.200,171.390 211.400 C 169.193 217.363,169.953 216.800,164.110 216.800 L 159.048 216.800 150.624 211.309 C 145.991 208.290,141.570 205.402,140.800 204.893 C 139.294 203.898,113.397 187.034,112.400 186.400 C 112.070 186.190,109.370 184.430,106.400 182.490 C 93.540 174.090,84.200 168.001,78.698 164.430 C 75.452 162.324,69.232 158.260,64.876 155.400 C 60.520 152.540,55.976 149.578,54.778 148.818 C 53.580 148.059,48.459 144.729,43.399 141.418 C 38.338 138.108,33.658 135.136,32.999 134.814 C 29.232 132.975,28.587 131.262,28.622 123.200 C 28.674 111.040,37.182 99.256,47.800 96.635 C 53.101 95.327,56.624 95.085,60.600 95.757 M36.646 110.586 C 35.800 111.877,35.690 111.681,38.194 113.343 C 40.761 115.048,40.958 115.080,41.766 113.927 C 42.514 112.859,42.179 112.359,39.622 110.732 C 37.463 109.358,37.451 109.357,36.646 110.586 M49.841 118.994 C 48.924 120.394,48.975 120.494,51.319 121.915 C 53.865 123.458,54.125 123.480,54.952 122.218 C 55.583 121.255,55.562 121.212,53.898 120.077 C 50.789 117.956,50.561 117.895,49.841 118.994 M62.896 127.595 C 62.137 128.811,62.235 128.977,64.673 130.596 L 66.947 132.106 67.673 131.209 C 68.707 129.933,68.637 129.781,66.305 128.211 C 63.879 126.577,63.567 126.520,62.896 127.595 M76.061 136.135 C 74.894 137.378,74.895 137.380,77.447 139.013 C 79.806 140.522,80.471 140.563,81.178 139.242 C 81.680 138.303,80.997 137.507,78.471 136.088 L 76.923 135.218 76.061 136.135 M30.719 140.646 C 31.753 141.251,37.460 144.923,43.400 148.807 C 49.340 152.691,56.261 157.203,58.781 158.834 C 61.300 160.465,67.198 164.320,71.886 167.400 C 76.575 170.480,82.518 174.350,85.092 176.000 C 87.666 177.650,93.334 181.340,97.687 184.200 C 102.041 187.060,107.987 190.951,110.901 192.847 C 113.816 194.743,119.440 198.413,123.400 201.003 C 127.360 203.593,133.660 207.695,137.400 210.120 C 141.140 212.545,147.038 216.390,150.506 218.664 L 156.813 222.800 164.944 222.800 C 174.484 222.800,173.591 223.245,175.773 217.400 C 176.594 215.200,177.809 211.960,178.473 210.200 C 179.136 208.440,180.039 206.010,180.479 204.800 C 180.918 203.590,181.423 202.240,181.601 201.800 C 181.778 201.360,182.481 199.515,183.162 197.700 C 183.843 195.885,184.957 192.915,185.638 191.100 C 186.319 189.285,187.022 187.440,187.199 187.000 C 187.377 186.560,187.882 185.210,188.321 184.000 C 188.761 182.790,189.667 180.360,190.335 178.600 C 191.003 176.840,192.744 172.160,194.203 168.200 C 196.466 162.057,198.307 157.131,199.583 153.800 C 201.150 149.707,202.445 148.043,204.993 146.845 L 206.791 146.000 276.350 146.000 L 345.909 146.000 348.048 147.118 C 349.606 147.931,350.516 148.766,351.394 150.186 L 352.600 152.137 352.800 186.627 C 352.991 219.493,353.035 221.155,353.742 221.936 C 354.458 222.727,354.966 222.759,368.942 222.888 C 385.226 223.038,385.596 223.098,389.072 226.151 C 392.600 229.249,392.981 230.571,393.128 240.211 C 393.298 251.479,392.223 254.378,386.744 257.413 L 384.600 258.600 201.208 258.702 C 34.549 258.794,17.642 258.745,15.904 258.168 C 9.684 256.102,7.800 252.111,7.800 241.000 C 7.800 231.439,8.209 229.829,11.436 226.670 C 15.582 222.611,12.810 222.800,68.288 222.800 C 122.155 222.800,118.014 223.030,117.987 220.038 C 117.969 217.938,117.877 217.861,106.780 210.651 C 101.181 207.013,91.470 200.683,85.200 196.585 C 78.930 192.487,72.180 188.089,70.200 186.813 C 68.220 185.537,61.200 180.968,54.600 176.660 C 16.422 151.737,19.458 153.851,18.352 151.417 C 14.829 143.661,23.282 136.298,30.719 140.646 M88.866 144.842 C 88.337 145.690,89.474 147.600,90.508 147.600 C 90.711 147.600,91.410 147.980,92.062 148.444 C 93.346 149.359,94.355 148.793,94.387 147.142 C 94.420 145.439,89.717 143.481,88.866 144.842 M101.976 153.445 C 101.064 155.149,105.836 158.498,106.994 156.967 C 107.972 155.675,107.687 154.957,105.800 153.956 C 104.810 153.431,104.000 152.866,104.000 152.701 C 104.000 151.948,102.477 152.508,101.976 153.445 M115.526 161.497 C 114.305 162.918,114.385 163.123,116.772 164.718 L 119.149 166.305 119.975 165.427 C 121.123 164.205,121.020 163.799,119.300 162.757 C 118.475 162.257,117.424 161.611,116.965 161.321 C 116.249 160.868,116.044 160.893,115.526 161.497 M214.360 164.442 C 213.722 165.126,213.200 165.861,213.200 166.077 C 213.200 166.441,209.536 176.506,206.785 183.700 C 206.133 185.405,205.060 188.240,204.400 190.000 C 201.174 198.604,200.701 199.857,200.401 200.600 C 200.223 201.040,199.718 202.390,199.279 203.600 C 198.155 206.694,196.212 211.854,194.798 215.500 C 193.388 219.136,193.281 220.881,194.400 222.000 C 195.599 223.199,252.256 223.264,253.338 222.069 C 253.941 221.402,254.000 218.813,254.000 193.098 L 254.000 164.858 252.946 164.029 C 251.915 163.218,251.499 163.200,233.707 163.200 L 215.521 163.200 214.360 164.442 M273.063 163.653 C 271.229 164.719,271.200 165.182,271.200 193.161 C 271.200 209.852,271.348 219.936,271.602 220.604 C 272.488 222.934,270.533 222.800,303.542 222.800 L 333.942 222.800 334.779 221.736 C 335.612 220.676,335.615 220.558,335.508 192.713 L 335.400 164.754 334.400 163.986 C 333.220 163.080,274.596 162.761,273.063 163.653 M362.425 164.840 C 383.645 171.806,388.869 199.247,371.675 213.430 C 367.925 216.523,367.047 216.852,362.907 216.716 L 359.400 216.600 359.156 206.600 C 358.809 192.383,358.750 164.583,359.067 164.267 C 359.448 163.885,359.592 163.910,362.425 164.840 M127.926 170.602 C 127.675 171.153,127.544 171.663,127.635 171.737 C 130.719 174.232,132.141 174.705,132.977 173.511 C 133.854 172.259,133.828 172.209,131.594 170.834 C 129.163 169.338,128.521 169.298,127.926 170.602 M247.903 193.100 L 247.800 216.600 224.700 216.703 L 201.600 216.806 201.598 215.903 C 201.597 215.406,202.137 213.605,202.798 211.900 C 204.692 207.015,206.164 203.078,208.590 196.400 C 209.830 192.990,210.996 189.840,211.183 189.400 C 211.369 188.960,211.917 187.520,212.400 186.200 C 212.883 184.880,213.423 183.440,213.600 183.000 C 213.777 182.560,214.317 181.120,214.800 179.800 C 215.283 178.480,215.823 177.040,216.000 176.600 C 216.177 176.160,216.729 174.720,217.225 173.400 C 217.722 172.080,218.286 170.685,218.478 170.300 C 218.802 169.653,219.923 169.600,233.417 169.600 L 248.006 169.600 247.903 193.100 M329.503 192.848 C 329.589 211.966,329.513 215.974,329.059 216.351 C 328.659 216.683,321.639 216.778,303.155 216.703 L 277.800 216.600 277.697 193.097 L 277.594 169.594 303.497 169.697 L 329.400 169.800 329.503 192.848 M139.595 178.013 C 139.318 178.680,139.162 179.281,139.246 179.348 C 142.287 181.766,143.858 182.335,144.643 181.300 C 145.510 180.158,145.309 179.786,143.006 178.257 C 140.349 176.493,140.228 176.484,139.595 178.013 M152.816 186.181 C 152.003 187.161,152.509 188.042,154.692 189.441 L 156.785 190.783 157.592 189.916 C 158.714 188.712,158.665 188.600,156.305 187.011 C 153.979 185.444,153.518 185.334,152.816 186.181 M165.045 194.713 C 164.471 195.823,164.476 195.829,166.888 197.391 L 169.306 198.957 170.053 198.034 C 171.101 196.740,171.057 196.648,168.632 195.039 C 166.025 193.309,165.783 193.287,165.045 194.713 M62.702 299.029 L 62.805 332.658 55.602 332.629 L 48.400 332.600 48.400 299.167 C 48.400 280.778,48.524 265.609,48.676 265.458 C 48.827 265.306,52.022 265.231,55.776 265.291 L 62.600 265.400 62.702 299.029 M331.800 279.200 L 331.800 293.000 201.200 293.109 C 129.370 293.169,70.195 293.121,69.700 293.002 L 68.800 292.785 68.800 279.472 C 68.800 269.642,68.926 266.034,69.281 265.679 C 69.653 265.307,99.207 265.221,200.781 265.299 L 331.800 265.400 331.800 279.200 M352.302 299.000 L 352.405 332.600 345.302 332.586 L 338.200 332.572 338.090 299.786 C 338.029 281.754,338.079 266.591,338.200 266.091 C 338.420 265.183,338.434 265.181,345.310 265.291 L 352.200 265.400 352.302 299.000 M330.800 316.800 L 330.800 333.200 200.400 333.200 L 70.000 333.200 70.000 316.800 L 70.000 300.400 200.400 300.400 L 330.800 300.400 330.800 316.800 M322.800 340.735 C 322.800 340.919,322.081 341.825,321.203 342.749 C 318.998 345.067,315.925 349.743,314.795 352.500 L 313.853 354.800 200.574 354.800 L 87.296 354.800 85.447 351.100 C 83.555 347.316,82.676 346.044,79.704 342.785 C 78.771 341.762,78.126 340.807,78.271 340.663 C 78.661 340.272,322.800 340.344,322.800 340.735 M58.793 360.052 C 64.602 363.593,62.364 372.187,55.633 372.187 C 48.918 372.187,46.433 363.451,52.155 359.962 C 53.881 358.909,56.988 358.952,58.793 360.052 M348.399 359.800 C 352.893 362.124,353.055 369.156,348.668 371.486 C 346.919 372.414,343.323 372.386,341.890 371.433 C 335.080 366.904,341.153 356.052,348.399 359.800 " stroke="none" fill="#0f1038" fill-rule="evenodd"></path><path id="path1" d="M181.726 32.780 C 179.807 33.950,179.600 34.682,179.600 40.314 C 179.600 48.883,179.290 49.200,170.909 49.200 C 162.764 49.200,162.400 49.598,162.400 58.520 C 162.400 67.893,162.595 68.105,171.490 68.399 C 179.703 68.670,179.354 68.314,179.536 76.616 L 179.672 82.810 180.867 84.005 L 182.062 85.200 189.024 85.200 L 195.987 85.200 197.288 84.038 L 198.589 82.875 198.795 76.451 C 199.061 68.106,198.508 68.660,206.847 68.400 L 213.267 68.200 214.433 66.894 L 215.600 65.587 215.600 58.624 L 215.600 51.662 214.397 50.459 L 213.195 49.256 207.007 49.128 C 198.718 48.956,199.074 49.305,198.788 41.090 C 198.478 32.170,198.297 31.999,189.138 32.001 C 183.766 32.003,182.841 32.100,181.726 32.780 M51.594 95.973 C 42.434 97.666,34.708 103.738,31.230 111.978 C 29.264 116.636,29.032 117.929,29.070 124.000 C 29.118 131.540,29.461 132.519,32.659 134.224 C 33.946 134.911,37.743 137.301,41.097 139.536 C 44.450 141.771,47.375 143.600,47.597 143.600 C 47.818 143.600,48.000 143.780,48.000 144.000 C 48.000 144.220,48.270 144.400,48.600 144.400 C 48.930 144.400,49.200 144.550,49.200 144.732 C 49.200 144.915,49.695 145.320,50.300 145.631 C 50.905 145.943,56.945 149.843,63.723 154.299 C 70.500 158.755,76.132 162.400,76.239 162.400 C 76.346 162.400,76.651 162.579,76.917 162.799 C 77.475 163.259,101.008 178.679,102.180 179.352 C 102.608 179.598,103.148 179.940,103.380 180.110 C 103.611 180.281,106.227 181.991,109.194 183.910 C 112.161 185.830,118.151 189.740,122.505 192.600 C 126.860 195.460,133.480 199.780,137.218 202.200 C 140.955 204.620,147.370 208.810,151.472 211.511 L 158.931 216.422 164.111 216.311 L 169.290 216.200 170.076 214.000 C 170.508 212.790,171.405 210.360,172.070 208.600 C 172.735 206.840,173.639 204.410,174.079 203.200 C 175.066 200.483,175.305 199.886,176.360 197.504 C 176.822 196.462,177.199 195.472,177.198 195.304 C 177.196 195.051,178.719 190.972,179.999 187.800 C 180.177 187.360,180.717 185.920,181.200 184.600 C 181.683 183.280,182.223 181.840,182.400 181.400 C 182.577 180.960,183.117 179.520,183.600 178.200 C 184.083 176.880,184.630 175.440,184.816 175.000 C 185.636 173.058,188.800 164.293,188.800 163.964 C 188.800 163.754,184.290 163.600,178.174 163.600 C 171.084 163.600,167.268 163.451,166.709 163.151 C 166.248 162.904,152.714 153.950,136.635 143.252 C 120.556 132.554,107.175 123.743,106.900 123.671 C 106.625 123.600,106.400 123.375,106.400 123.171 C 106.400 122.967,106.238 122.800,106.039 122.800 C 105.841 122.800,97.726 117.473,88.005 110.963 C 70.266 99.082,68.069 97.783,63.741 96.614 C 60.959 95.863,54.136 95.503,51.594 95.973 M42.400 112.971 C 42.400 113.268,42.060 113.931,41.645 114.443 L 40.891 115.375 38.545 113.923 C 35.955 112.318,35.552 111.432,36.802 110.090 L 37.636 109.195 40.018 110.812 C 41.328 111.702,42.400 112.673,42.400 112.971 M53.406 119.457 C 55.772 121.028,55.929 121.352,54.977 122.711 C 54.353 123.602,52.800 123.951,52.800 123.200 C 52.800 122.980,52.617 122.800,52.394 122.800 C 51.542 122.800,49.210 120.968,49.205 120.295 C 49.188 117.824,50.541 117.554,53.406 119.457 M66.422 128.015 C 69.109 129.840,69.153 129.945,67.868 131.439 L 66.936 132.522 64.468 130.846 C 61.677 128.951,61.767 129.117,62.686 127.562 C 63.559 126.085,63.584 126.088,66.422 128.015 M79.600 136.542 C 80.590 137.205,81.522 137.929,81.672 138.152 C 81.975 138.602,80.560 140.800,79.967 140.800 C 79.271 140.800,75.200 137.894,75.200 137.397 C 75.200 136.564,76.835 134.775,77.332 135.064 C 77.589 135.214,78.610 135.879,79.600 136.542 M92.606 145.057 C 94.963 146.622,95.195 147.171,94.092 148.574 C 93.299 149.582,93.016 149.526,90.400 147.840 C 88.072 146.340,87.920 146.059,88.712 144.718 C 89.567 143.271,89.970 143.306,92.606 145.057 M104.200 152.725 C 108.395 155.144,108.492 155.277,107.354 157.014 C 106.509 158.304,106.370 158.281,103.578 156.385 C 100.885 154.556,100.969 154.715,101.886 153.162 C 102.683 151.814,102.634 151.823,104.200 152.725 M119.006 162.257 C 120.213 163.058,121.200 163.769,121.200 163.838 C 121.200 166.178,119.248 166.677,116.633 165.004 C 114.244 163.476,114.050 163.077,115.023 161.689 C 115.870 160.479,116.454 160.562,119.006 162.257 M359.200 177.735 C 359.200 185.069,359.319 196.769,359.465 203.735 L 359.729 216.400 363.273 216.400 C 366.419 216.400,367.005 216.281,368.508 215.335 C 380.039 208.080,384.921 192.869,379.560 180.904 C 379.142 179.972,378.800 179.107,378.800 178.982 C 378.800 178.578,375.470 173.837,374.218 172.460 C 370.902 168.810,362.987 164.417,359.700 164.402 C 359.310 164.400,359.200 167.332,359.200 177.735 M131.597 170.500 C 133.787 171.931,134.135 172.991,132.812 174.190 C 132.039 174.889,127.215 172.563,127.203 171.486 C 127.179 169.282,129.081 168.855,131.597 170.500 M218.408 170.900 C 218.139 171.615,217.775 172.560,217.599 173.000 C 217.222 173.940,216.560 175.724,212.999 185.400 C 211.542 189.360,210.200 192.960,210.018 193.400 C 208.816 196.297,208.000 198.585,208.000 199.059 C 208.000 199.362,207.841 199.923,207.647 200.305 C 207.164 201.255,206.635 202.571,205.600 205.400 C 205.117 206.720,204.573 208.160,204.390 208.600 C 203.078 211.765,201.701 215.840,201.858 216.094 C 201.962 216.263,212.297 216.400,224.824 216.400 L 247.600 216.400 247.600 193.000 L 247.600 169.600 233.249 169.600 L 218.897 169.600 218.408 170.900 M278.097 192.897 L 278.200 216.200 303.453 216.303 L 328.706 216.406 328.982 199.503 C 329.134 190.206,329.200 179.720,329.129 176.200 L 329.000 169.800 303.497 169.697 L 277.994 169.594 278.097 192.897 M143.497 178.249 C 145.819 179.848,145.885 179.993,144.954 181.414 C 144.119 182.689,143.947 182.668,141.152 180.971 C 138.584 179.411,138.493 179.240,139.446 177.786 C 140.315 176.460,141.016 176.540,143.497 178.249 M156.422 186.815 C 159.107 188.638,159.022 188.490,158.154 189.814 C 157.347 191.045,156.661 191.018,154.443 189.667 C 152.052 188.211,151.681 187.546,152.537 186.240 C 153.427 184.882,153.617 184.910,156.422 186.815 M168.455 194.652 C 171.356 196.615,171.300 196.542,170.765 197.717 C 170.012 199.369,169.272 199.341,166.532 197.556 C 164.135 195.994,164.012 195.840,164.518 195.046 C 164.815 194.581,165.190 193.975,165.353 193.700 C 165.788 192.962,166.100 193.058,168.455 194.652 M54.200 359.509 C 50.199 360.034,47.949 365.066,50.047 368.798 C 53.252 374.501,61.849 372.145,61.759 365.589 C 61.702 361.374,58.657 358.925,54.200 359.509 M343.859 359.492 C 343.197 359.590,341.979 360.400,340.959 361.420 C 335.878 366.501,342.041 374.642,348.406 371.259 C 354.848 367.836,351.202 358.403,343.859 359.492 " stroke="none" fill="#d0d5fb" fill-rule="evenodd"></path><path id="path2" d="M179.839 8.643 C 140.431 15.759,124.514 64.915,152.257 93.825 C 179.420 122.132,227.052 110.460,238.056 72.800 C 248.570 36.816,216.927 1.945,179.839 8.643 M199.036 26.876 C 203.219 29.080,204.795 31.920,205.095 37.800 C 205.355 42.899,205.257 42.798,209.949 42.809 C 219.289 42.830,221.990 46.394,221.996 58.704 C 222.002 71.034,219.540 74.278,209.800 74.775 L 205.400 75.000 205.163 79.400 C 204.637 89.147,201.404 91.602,189.104 91.596 C 176.779 91.590,173.535 89.088,172.871 79.076 L 172.600 75.000 168.400 74.767 C 158.589 74.224,156.200 71.058,156.200 58.600 C 156.201 46.310,158.512 43.268,168.200 42.809 L 172.600 42.600 172.837 39.000 C 173.336 31.415,175.546 27.888,180.869 26.178 C 184.239 25.095,196.554 25.569,199.036 26.876 M55.900 95.482 C 56.395 95.578,57.205 95.578,57.700 95.482 C 58.195 95.387,57.790 95.309,56.800 95.309 C 55.810 95.309,55.405 95.387,55.900 95.482 M173.700 163.499 C 176.505 163.568,181.095 163.568,183.900 163.499 C 186.705 163.430,184.410 163.374,178.800 163.374 C 173.190 163.374,170.895 163.430,173.700 163.499 M358.983 164.500 C 358.877 164.775,358.838 172.650,358.896 182.000 L 359.000 199.000 359.200 181.500 C 359.310 171.875,359.349 164.000,359.287 164.000 C 359.226 164.000,359.089 164.225,358.983 164.500 M329.381 184.200 C 329.380 192.120,329.434 195.417,329.499 191.526 C 329.565 187.635,329.565 181.155,329.500 177.126 C 329.434 173.097,329.381 176.280,329.381 184.200 M69.281 265.679 C 68.926 266.034,68.800 269.642,68.800 279.472 L 68.800 292.785 69.700 293.002 C 70.195 293.121,129.370 293.169,201.200 293.109 L 331.800 293.000 331.800 279.200 L 331.800 265.400 200.781 265.299 C 99.207 265.221,69.653 265.307,69.281 265.679 M331.201 271.900 C 331.202 275.145,331.320 281.175,331.464 285.300 L 331.726 292.800 200.663 292.800 L 69.600 292.800 69.600 279.400 L 69.600 266.000 200.400 266.000 L 331.200 266.000 331.201 271.900 " stroke="none" fill="#f1535b" fill-rule="evenodd"></path><path id="path3" d="M69.600 279.400 L 69.600 292.800 200.663 292.800 L 331.726 292.800 331.464 285.300 C 331.320 281.175,331.202 275.145,331.201 271.900 L 331.200 266.000 200.400 266.000 L 69.600 266.000 69.600 279.400 " stroke="none" fill="#fb8664" fill-rule="evenodd"></path><path id="path4" d="M179.357 40.800 C 179.357 43.770,179.420 44.985,179.497 43.500 C 179.574 42.015,179.574 39.585,179.497 38.100 C 179.420 36.615,179.357 37.830,179.357 40.800 M198.957 41.600 C 198.957 44.570,199.020 45.785,199.097 44.300 C 199.174 42.815,199.174 40.385,199.097 38.900 C 199.020 37.415,198.957 38.630,198.957 41.600 M168.900 49.097 C 170.385 49.174,172.815 49.174,174.300 49.097 C 175.785 49.020,174.570 48.957,171.600 48.957 C 168.630 48.957,167.415 49.020,168.900 49.097 M204.100 49.097 C 205.585 49.174,208.015 49.174,209.500 49.097 C 210.985 49.020,209.770 48.957,206.800 48.957 C 203.830 48.957,202.615 49.020,204.100 49.097 M215.760 58.600 C 215.761 61.900,215.822 63.197,215.898 61.482 C 215.973 59.767,215.972 57.067,215.897 55.482 C 215.821 53.897,215.759 55.300,215.760 58.600 M168.900 68.697 C 170.385 68.774,172.815 68.774,174.300 68.697 C 175.785 68.620,174.570 68.557,171.600 68.557 C 168.630 68.557,167.415 68.620,168.900 68.697 M203.682 68.696 C 205.158 68.773,207.678 68.773,209.282 68.697 C 210.887 68.621,209.680 68.558,206.600 68.558 C 203.520 68.557,202.207 68.619,203.682 68.696 M198.957 76.000 C 198.957 78.970,199.020 80.185,199.097 78.700 C 199.174 77.215,199.174 74.785,199.097 73.300 C 199.020 71.815,198.957 73.030,198.957 76.000 M179.355 76.600 C 179.356 79.460,179.420 80.578,179.497 79.083 C 179.574 77.589,179.574 75.249,179.496 73.883 C 179.418 72.518,179.355 73.740,179.355 76.600 M197.078 84.213 C 196.460 84.756,196.114 85.200,196.308 85.200 C 196.502 85.200,197.083 84.750,197.600 84.200 C 198.795 82.928,198.531 82.934,197.078 84.213 M186.100 85.497 C 187.805 85.572,190.595 85.572,192.300 85.497 C 194.005 85.422,192.610 85.361,189.200 85.361 C 185.790 85.361,184.395 85.422,186.100 85.497 M30.817 112.050 C 28.788 116.766,27.926 123.151,28.668 127.968 C 28.929 129.664,29.003 128.837,29.007 124.168 C 29.012 118.052,29.579 115.121,31.461 111.483 C 31.790 110.846,31.980 110.247,31.884 110.151 C 31.788 110.054,31.307 110.909,30.817 112.050 M36.774 112.724 C 37.309 113.159,38.299 113.819,38.974 114.191 L 40.200 114.867 39.226 114.076 C 38.691 113.641,37.701 112.981,37.026 112.609 L 35.800 111.933 36.774 112.724 M50.486 121.800 C 51.295 122.350,52.099 122.800,52.272 122.800 C 52.444 122.800,51.923 122.350,51.114 121.800 C 50.305 121.250,49.501 120.800,49.328 120.800 C 49.156 120.800,49.677 121.250,50.486 121.800 M62.000 128.709 C 62.000 128.962,63.100 129.917,64.444 130.830 L 66.888 132.490 67.744 131.560 L 68.600 130.630 67.727 131.353 C 66.823 132.100,64.037 130.776,62.500 128.868 C 62.214 128.513,62.000 128.445,62.000 128.709 M29.460 131.400 C 29.592 132.060,29.967 132.870,30.294 133.200 C 30.822 133.732,30.844 133.710,30.486 133.000 C 30.264 132.560,29.889 131.750,29.652 131.200 C 29.240 130.243,29.231 130.251,29.460 131.400 M31.200 133.771 C 31.200 134.047,33.714 135.220,33.902 135.031 C 33.997 134.936,33.527 134.576,32.857 134.229 C 31.609 133.584,31.200 133.471,31.200 133.771 M34.400 135.324 C 34.400 135.417,35.165 135.998,36.100 136.615 C 37.035 137.232,37.589 137.480,37.331 137.168 C 36.834 136.567,34.400 135.036,34.400 135.324 M38.200 137.887 C 38.603 138.294,44.086 141.976,45.200 142.588 C 46.589 143.351,44.829 141.996,42.000 140.125 C 38.556 137.848,37.610 137.290,38.200 137.887 M76.400 138.501 C 76.400 138.835,79.559 140.800,80.091 140.798 C 80.371 140.796,80.150 140.560,79.600 140.273 C 79.050 139.985,78.105 139.426,77.500 139.029 C 76.895 138.633,76.400 138.395,76.400 138.501 M23.012 139.814 C 18.523 141.525,16.334 146.975,18.352 151.417 C 19.458 153.851,16.422 151.737,54.600 176.660 C 61.200 180.968,68.220 185.537,70.200 186.813 C 72.180 188.089,78.930 192.487,85.200 196.585 C 91.470 200.683,101.181 207.013,106.780 210.651 C 117.877 217.861,117.969 217.938,117.987 220.038 C 118.014 223.030,122.155 222.800,68.288 222.800 C 12.810 222.800,15.582 222.611,11.436 226.670 C 8.209 229.829,7.800 231.439,7.800 241.000 C 7.800 252.111,9.684 256.102,15.904 258.168 C 17.642 258.745,34.549 258.794,201.208 258.702 L 384.600 258.600 386.744 257.413 C 392.223 254.378,393.298 251.479,393.128 240.211 C 392.981 230.571,392.600 229.249,389.072 226.151 C 385.596 223.098,385.226 223.038,368.942 222.888 C 354.966 222.759,354.458 222.727,353.742 221.936 C 353.035 221.155,352.991 219.493,352.800 186.627 L 352.600 152.137 351.394 150.186 C 350.516 148.766,349.606 147.931,348.048 147.118 L 345.909 146.000 276.350 146.000 L 206.791 146.000 204.993 146.845 C 202.445 148.043,201.150 149.707,199.583 153.800 C 198.307 157.131,196.466 162.057,194.203 168.200 C 192.744 172.160,191.003 176.840,190.335 178.600 C 189.667 180.360,188.761 182.790,188.321 184.000 C 187.882 185.210,187.377 186.560,187.199 187.000 C 187.022 187.440,186.319 189.285,185.638 191.100 C 184.957 192.915,183.843 195.885,183.162 197.700 C 182.481 199.515,181.778 201.360,181.601 201.800 C 181.423 202.240,180.918 203.590,180.479 204.800 C 180.039 206.010,179.136 208.440,178.473 210.200 C 177.809 211.960,176.594 215.200,175.773 217.400 C 173.591 223.245,174.484 222.800,164.944 222.800 L 156.813 222.800 150.506 218.664 C 147.038 216.390,141.140 212.545,137.400 210.120 C 133.660 207.695,127.360 203.593,123.400 201.003 C 119.440 198.413,113.816 194.743,110.901 192.847 C 107.987 190.951,102.041 187.060,97.687 184.200 C 93.334 181.340,87.666 177.650,85.092 176.000 C 82.518 174.350,76.575 170.480,71.886 167.400 C 67.198 164.320,61.300 160.465,58.781 158.834 C 56.261 157.203,49.340 152.691,43.400 148.807 C 27.720 138.555,27.069 138.268,23.012 139.814 M88.220 146.109 C 88.328 146.388,88.817 146.862,89.308 147.161 C 90.159 147.680,90.155 147.656,89.230 146.653 C 88.148 145.477,87.934 145.362,88.220 146.109 M50.800 146.144 C 50.800 146.277,54.856 148.940,57.200 150.347 C 59.185 151.538,57.332 150.064,54.318 148.055 C 51.434 146.132,50.800 145.788,50.800 146.144 M94.285 146.802 C 94.400 147.243,94.248 147.918,93.947 148.302 C 93.452 148.934,93.466 148.948,94.100 148.451 C 94.846 147.866,95.039 146.595,94.437 146.223 C 94.238 146.100,94.169 146.360,94.285 146.802 M91.309 148.400 C 91.869 148.840,92.478 149.196,92.663 149.191 C 93.100 149.180,91.113 147.621,90.646 147.609 C 90.451 147.604,90.750 147.960,91.309 148.400 M63.400 154.289 C 63.796 154.691,71.646 159.950,72.800 160.587 C 74.394 161.465,72.216 159.851,68.400 157.325 C 63.772 154.261,62.778 153.658,63.400 154.289 M104.800 157.144 C 105.896 158.063,106.620 158.215,106.997 157.605 C 107.134 157.383,106.984 157.308,106.653 157.435 C 106.329 157.559,105.555 157.356,104.932 156.983 L 103.800 156.305 104.800 157.144 M77.200 163.335 C 77.200 163.492,83.954 167.934,85.200 168.598 C 86.519 169.300,84.882 168.030,82.000 166.116 C 78.825 164.007,77.200 163.066,77.200 163.335 M114.544 163.509 C 114.661 163.699,115.676 164.425,116.800 165.124 C 117.924 165.822,118.742 166.230,118.618 166.029 C 118.494 165.828,117.479 165.102,116.362 164.414 C 115.245 163.727,114.427 163.320,114.544 163.509 M252.946 164.029 L 254.000 164.858 254.000 193.098 C 254.000 218.813,253.941 221.402,253.338 222.069 C 252.256 223.264,195.599 223.199,194.400 222.000 C 193.281 220.881,193.388 219.136,194.798 215.500 C 196.212 211.854,198.155 206.694,199.279 203.600 C 199.718 202.390,200.223 201.040,200.401 200.600 C 200.701 199.857,201.174 198.604,204.400 190.000 C 205.060 188.240,206.133 185.405,206.785 183.700 C 209.536 176.506,213.200 166.441,213.200 166.077 C 213.200 165.861,213.722 165.126,214.360 164.442 L 215.521 163.200 233.707 163.200 C 251.499 163.200,251.915 163.218,252.946 164.029 M334.400 163.986 L 335.400 164.754 335.508 192.713 C 335.615 220.558,335.612 220.676,334.779 221.736 L 333.942 222.800 303.542 222.800 C 270.533 222.800,272.488 222.934,271.602 220.604 C 270.916 218.801,271.067 167.093,271.763 165.428 C 272.717 163.143,271.545 163.225,303.600 163.221 C 332.377 163.218,333.434 163.244,334.400 163.986 M247.697 192.906 L 247.600 216.413 224.600 216.306 C 211.950 216.248,201.600 216.335,201.600 216.500 C 201.600 217.061,247.601 216.862,247.816 216.300 C 247.922 216.025,247.959 205.360,247.901 192.600 L 247.793 169.400 247.697 192.906 M277.794 193.000 L 277.800 216.600 303.155 216.703 C 321.551 216.778,328.660 216.682,329.055 216.354 C 329.486 215.996,329.594 214.057,329.572 207.051 C 329.555 201.735,329.406 198.520,329.200 199.000 C 329.011 199.440,328.844 203.536,328.828 208.103 L 328.800 216.406 303.500 216.303 L 278.200 216.200 277.994 192.800 L 277.787 169.400 277.794 193.000 M88.600 170.689 C 88.996 171.091,96.846 176.350,98.000 176.987 C 99.594 177.865,97.416 176.251,93.600 173.725 C 88.972 170.661,87.978 170.058,88.600 170.689 M138.923 178.919 C 138.965 179.314,139.630 180.009,140.400 180.462 L 141.800 181.287 140.800 180.452 C 140.250 179.993,139.678 179.614,139.529 179.609 C 139.380 179.604,139.166 179.285,139.052 178.900 C 138.863 178.260,138.852 178.261,138.923 178.919 M103.800 180.682 C 104.280 181.162,109.911 184.910,111.135 185.565 C 113.118 186.627,111.756 185.544,108.300 183.311 C 104.180 180.650,103.187 180.070,103.800 180.682 M112.400 186.327 C 112.400 186.516,112.850 186.877,113.400 187.127 C 113.950 187.378,114.400 187.517,114.400 187.437 C 114.400 187.357,113.950 186.997,113.400 186.637 C 112.850 186.276,112.400 186.137,112.400 186.327 M152.032 187.238 C 152.000 187.872,152.852 188.800,154.000 189.383 C 154.330 189.551,154.123 189.263,153.540 188.744 C 152.957 188.225,152.386 187.530,152.271 187.200 C 152.095 186.693,152.058 186.699,152.032 187.238 M381.693 189.600 C 381.693 190.370,381.775 190.685,381.876 190.300 C 381.976 189.915,381.976 189.285,381.876 188.900 C 381.775 188.515,381.693 188.830,381.693 189.600 M117.400 189.489 C 117.796 189.891,125.646 195.150,126.800 195.787 C 128.394 196.665,126.216 195.051,122.400 192.525 C 117.772 189.461,116.778 188.858,117.400 189.489 M381.693 194.000 C 381.693 194.770,381.775 195.085,381.876 194.700 C 381.976 194.315,381.976 193.685,381.876 193.300 C 381.775 192.915,381.693 193.230,381.693 194.000 M164.422 195.158 C 163.946 196.048,168.576 199.414,169.688 198.988 C 170.596 198.639,171.344 196.783,170.795 196.239 C 170.473 195.919,170.418 195.972,170.594 196.434 C 170.726 196.783,170.491 197.493,170.070 198.012 L 169.306 198.957 166.886 197.390 C 164.861 196.079,164.529 195.707,164.847 195.112 C 165.057 194.720,165.138 194.400,165.028 194.400 C 164.918 194.400,164.646 194.741,164.422 195.158 M130.200 197.888 C 130.740 198.435,137.547 202.945,138.800 203.586 C 140.584 204.499,139.089 203.373,135.000 200.724 C 130.516 197.820,129.597 197.277,130.200 197.888 M359.388 208.100 L 359.400 216.600 363.101 216.624 L 366.802 216.648 363.209 216.509 L 359.616 216.370 359.496 207.985 L 359.376 199.599 359.388 208.100 M174.974 200.643 C 174.840 201.059,174.385 202.279,173.965 203.353 C 173.544 204.428,173.209 205.508,173.221 205.753 C 173.232 205.999,173.779 204.872,174.436 203.249 C 175.094 201.626,175.539 200.205,175.425 200.092 C 175.312 199.978,175.109 200.226,174.974 200.643 M378.680 204.080 C 378.292 204.756,378.057 205.391,378.158 205.491 C 378.259 205.592,378.638 205.101,379.000 204.400 C 379.857 202.743,379.597 202.483,378.680 204.080 M376.008 208.434 C 374.202 210.915,370.427 214.352,368.303 215.450 C 367.656 215.785,367.220 216.153,367.335 216.268 C 368.032 216.965,375.733 210.016,377.323 207.255 C 378.430 205.331,377.962 205.751,376.008 208.434 M143.800 206.688 C 144.199 207.092,150.863 211.561,152.000 212.187 C 153.499 213.012,151.520 211.522,148.200 209.325 C 144.164 206.654,143.192 206.072,143.800 206.688 M171.699 209.513 C 170.485 212.643,170.584 213.202,171.823 210.218 C 172.367 208.907,172.764 207.691,172.705 207.515 C 172.646 207.339,172.194 208.238,171.699 209.513 M170.044 214.044 C 169.798 214.751,169.666 215.400,169.752 215.485 C 169.838 215.571,170.109 215.062,170.356 214.356 C 170.602 213.649,170.734 213.000,170.648 212.915 C 170.562 212.829,170.291 213.338,170.044 214.044 M158.176 216.178 C 159.004 216.841,168.949 217.128,169.339 216.500 C 169.442 216.335,167.209 216.255,164.378 216.322 C 161.169 216.398,158.885 216.277,158.315 216.000 C 157.439 215.575,157.433 215.583,158.176 216.178 M48.676 265.458 C 48.524 265.609,48.400 280.778,48.400 299.167 L 48.400 332.600 55.602 332.629 L 62.805 332.658 62.702 299.029 L 62.600 265.400 55.776 265.291 C 52.022 265.231,48.827 265.306,48.676 265.458 M338.200 266.091 C 338.079 266.591,338.029 281.754,338.090 299.786 L 338.200 332.572 345.302 332.586 L 352.405 332.600 352.302 299.000 L 352.200 265.400 345.310 265.291 C 338.434 265.181,338.420 265.183,338.200 266.091 M78.271 340.663 C 78.126 340.807,78.771 341.762,79.704 342.785 C 82.676 346.044,83.555 347.316,85.447 351.100 L 87.296 354.800 200.574 354.800 L 313.853 354.800 314.795 352.500 C 315.925 349.743,318.998 345.067,321.203 342.749 C 322.081 341.825,322.800 340.919,322.800 340.735 C 322.800 340.344,78.661 340.272,78.271 340.663 M341.222 360.643 C 340.540 361.217,339.794 362.072,339.564 362.543 C 339.224 363.241,339.295 363.215,339.949 362.401 C 340.391 361.852,341.258 360.998,341.876 360.503 C 342.494 360.009,342.879 359.603,342.731 359.602 C 342.583 359.601,341.904 360.069,341.222 360.643 M348.200 359.857 C 350.237 361.664,350.987 362.191,350.202 361.263 C 349.766 360.748,349.047 360.141,348.604 359.914 C 348.162 359.687,347.980 359.662,348.200 359.857 M338.901 365.800 C 338.905 366.680,338.987 366.993,339.083 366.495 C 339.179 365.998,339.175 365.278,339.075 364.895 C 338.975 364.513,338.896 364.920,338.901 365.800 M351.693 365.600 C 351.693 366.370,351.775 366.685,351.876 366.300 C 351.976 365.915,351.976 365.285,351.876 364.900 C 351.775 364.515,351.693 364.830,351.693 365.600 " stroke="none" fill="#2493f3" fill-rule="evenodd"></path></g></svg>